<?xml version="1.0" encoding="utf-8"?>
<!-- Generator: Adobe Illustrator 17.0.0, SVG Export Plug-In . SVG Version: 6.00 Build 0)  -->
<!DOCTYPE svg PUBLIC "-//W3C//DTD SVG 1.1//EN" "http://www.w3.org/Graphics/SVG/1.1/DTD/svg11.dtd">
<svg version="1.1" id="Layer_1" xmlns="http://www.w3.org/2000/svg" xmlns:xlink="http://www.w3.org/1999/xlink" x="0px" y="0px"
	 width="120px" height="120px" viewBox="0 0 120 120" enable-background="new 0 0 120 120" xml:space="preserve">
<g>
	<g>
		<linearGradient id="SVGID_1_" gradientUnits="userSpaceOnUse" x1="60.5101" y1="97.4788" x2="60.5101" y2="20.5097">
			<stop  offset="0" style="stop-color:#1D45F0"/>
			<stop  offset="1" style="stop-color:#1A95FD"/>
		</linearGradient>
		<path fill="url(#SVGID_1_)" d="M40.488,52.748l3.294,4.552c-0.007-0.176,0.014-0.525,0.068-1.046
			c0.052-0.524,0.119-1.174,0.199-1.949c0.081-0.776,0.166-1.642,0.256-2.594c0.091-0.956,0.172-1.952,0.243-2.99
			c0.789,0.659,1.692,0.901,2.707,0.731c0.033-0.007,0.06-0.004,0.08,0.007c0.022,0.015,0.064,0.01,0.131-0.005
			c1.331-0.176,2.566-0.633,3.709-1.38c1.143-0.746,2.14-1.581,2.996-2.505c0.459-0.498,0.868-0.993,1.242-1.486
			c-0.067,0.589-0.135,1.174-0.201,1.766c-0.134,1.211-0.272,2.379-0.41,3.504c-0.14,1.122-0.261,2.164-0.368,3.122
			c-0.109,0.958-0.194,1.746-0.261,2.36l3.948-0.936c0.027-0.184,0.065-0.537,0.118-1.057c0.053-0.525,0.111-1.172,0.174-1.943
			c0.064-0.772,0.14-1.636,0.232-2.589c0.089-0.955,0.17-1.951,0.241-2.989c0.789,0.659,1.69,0.901,2.706,0.732
			c0.032-0.008,0.06-0.004,0.082,0.007c0.02,0.014,0.063,0.01,0.13-0.005c1.329-0.175,2.566-0.634,3.709-1.38
			c1.143-0.746,2.142-1.581,2.996-2.504c0.854-0.925,1.56-1.84,2.118-2.749c0.559-0.908,0.943-1.596,1.146-2.065
			c0.207-0.473,0.276-0.813,0.207-1.027c-0.069-0.211-0.199-0.322-0.393-0.328c-0.196-0.008-0.43,0.083-0.702,0.271
			c-0.272,0.189-0.522,0.466-0.751,0.838c-0.399,0.692-0.927,1.513-1.581,2.46c-0.655,0.949-1.386,1.73-2.189,2.342
			c0.383-0.76,0.68-1.587,0.891-2.482c0.296-1.125,0.439-2.163,0.424-3.11c-0.013-0.948-0.147-1.769-0.399-2.467
			c-0.254-0.697-0.609-1.264-1.063-1.702c-0.455-0.438-0.978-0.709-1.565-0.817c-0.845-0.152-1.688,0.145-2.533,0.89
			c-0.843,0.747-1.603,1.693-2.282,2.84c0.013-0.392,0.038-0.732,0.073-1.022c0.038-0.291,0.065-0.543,0.085-0.759
			c0.045-0.256,0.06-0.489,0.047-0.697l-3.499,0.83c-0.253,2.462-0.499,4.819-0.736,7.079c-0.003,0.006-0.007,0.009-0.011,0.015
			c-0.399,0.692-0.925,1.514-1.581,2.46c-0.655,0.949-1.384,1.73-2.189,2.342c0.383-0.761,0.68-1.587,0.891-2.483
			c0.294-1.124,0.437-2.162,0.424-3.11c-0.014-0.948-0.147-1.769-0.399-2.466c-0.254-0.698-0.608-1.265-1.063-1.702
			c-0.456-0.438-0.978-0.71-1.565-0.818c-0.845-0.153-1.69,0.145-2.533,0.889c-0.845,0.747-1.604,1.693-2.283,2.84
			c0.013-0.392,0.039-0.731,0.075-1.022c0.036-0.29,0.064-0.543,0.083-0.758c0.045-0.256,0.06-0.49,0.046-0.697l-3.497,0.829
			c-0.21,2.089-0.414,4.129-0.612,6.112c-0.194,1.701-0.39,3.443-0.582,5.231C40.82,49.949,40.644,51.478,40.488,52.748z
			 M59.48,40.482c0.091-0.656,0.276-1.367,0.551-2.137c0.274-0.769,0.589-1.478,0.947-2.126c0.357-0.648,0.74-1.179,1.154-1.595
			c0.413-0.412,0.816-0.596,1.215-0.55c0.181,0.027,0.323,0.214,0.423,0.561c0.1,0.344,0.16,0.78,0.176,1.303
			c0.02,0.524-0.009,1.111-0.083,1.763c-0.074,0.652-0.174,1.309-0.297,1.973c-0.223,1.143-0.55,2.1-0.983,2.872
			c-0.434,0.771-0.929,1.242-1.487,1.409c-0.651,0.225-1.152,0.036-1.505-0.567C59.235,42.785,59.197,41.816,59.48,40.482z
			 M45.142,43.881c0.09-0.656,0.274-1.367,0.549-2.137c0.275-0.769,0.592-1.479,0.948-2.126c0.356-0.648,0.741-1.178,1.154-1.594
			c0.412-0.412,0.816-0.596,1.215-0.551c0.181,0.028,0.323,0.215,0.422,0.561c0.1,0.345,0.158,0.781,0.177,1.304
			c0.019,0.525-0.01,1.11-0.084,1.763c-0.075,0.652-0.174,1.308-0.298,1.972c-0.222,1.143-0.551,2.101-0.982,2.872
			c-0.433,0.772-0.929,1.242-1.487,1.409c-0.65,0.225-1.154,0.036-1.506-0.566C44.896,46.184,44.86,45.215,45.142,43.881z
			 M28.214,47.259l3.728-1.41c0.08,1.67,0.274,3.272,0.582,4.798c0.309,1.529,0.733,2.951,1.274,4.266
			c0.54,1.317,1.203,2.487,1.992,3.514c0.787,1.029,1.694,1.846,2.715,2.447c1.229,0.731,2.686,1.016,4.375,0.865
			c1.686-0.156,3.259-0.606,4.717-1.358c1.458-0.75,2.619-1.713,3.486-2.885c0.865-1.174,1.103-2.436,0.713-3.786
			c-0.348-0.868-0.936-1.504-1.77-1.904c-0.834-0.402-1.689-0.445-2.564-0.133c-0.868,0.346-1.511,0.939-1.928,1.778
			c-0.418,0.839-0.453,1.693-0.106,2.562c0.329,0.941,0.996,1.609,2.004,2.005c-0.559,0.308-1.276,0.514-2.149,0.615
			c-0.872,0.101-1.667-0.098-2.383-0.597c-1.163-0.746-2.167-2.02-3.016-3.826c-0.85-1.803-1.526-3.881-2.028-6.225
			c-0.503-2.346-0.834-4.828-0.997-7.446c-0.163-2.62-0.132-5.137,0.088-7.546c0.22-2.411,0.654-4.592,1.3-6.541
			c0.647-1.948,1.524-3.405,2.632-4.373c0.368-0.369,0.559-0.721,0.568-1.056c0.007-0.338-0.129-0.508-0.411-0.512
			c-0.582,0.069-1.207,0.182-1.872,0.34c-0.568,0.134-1.223,0.334-1.969,0.597c-0.747,0.267-1.518,0.583-2.31,0.945
			c-1.755,0.909-3.272,2.194-4.549,3.851c-1.279,1.66-2.395,3.525-3.346,5.598c-0.952,2.074-1.774,4.285-2.466,6.632
			c-0.694,2.347-1.308,4.691-1.843,7.035l-5.846,1.386l-3.499,5.952l8.383-3.147c-0.396,1.749-0.785,3.409-1.17,4.976
			c-0.385,1.571-0.802,2.971-1.249,4.204c-0.447,1.233-0.935,2.256-1.463,3.068c-0.53,0.811-1.132,1.35-1.808,1.616
			c-0.484,0.185-1.041,0.212-1.67,0.08c0.254-0.271,0.468-0.552,0.646-0.839c0.435-0.841,0.511-1.705,0.232-2.589
			c-0.28-0.885-0.824-1.547-1.631-1.99c-0.842-0.433-1.713-0.508-2.613-0.226c-0.901,0.284-1.571,0.829-2.013,1.639
			c-0.486,0.926-0.6,1.85-0.345,2.775c0.253,0.925,0.79,1.741,1.608,2.446c0.816,0.703,1.874,1.201,3.175,1.49
			c1.299,0.289,2.75,0.246,4.348-0.134c1.532-0.363,2.845-1.131,3.939-2.307c1.094-1.175,2.043-2.623,2.849-4.345
			c0.806-1.723,1.495-3.639,2.071-5.744C27.199,51.708,27.728,49.523,28.214,47.259z M30.183,37.526
			c0.446-2.13,0.948-4.097,1.505-5.903c0.559-1.804,1.206-3.376,1.946-4.711c0.738-1.337,1.627-2.341,2.664-3.007
			c0.528-0.303,1.066-0.554,1.616-0.755c-0.952,1.177-1.797,2.548-2.535,4.113c-0.736,1.567-1.364,3.227-1.88,4.989
			c-0.516,1.757-0.911,3.577-1.189,5.455c-0.276,1.879-0.421,3.752-0.435,5.62l-3,0.711C29.303,41.827,29.738,39.655,30.183,37.526z
			 M42.608,77.735c-0.172-0.066-0.397-0.013-0.673,0.16c-0.277,0.168-0.571,0.487-0.883,0.947c-0.314,0.465-0.624,0.942-0.929,1.436
			c-0.305,0.494-0.609,0.955-0.914,1.378c-0.303,0.425-0.615,0.78-0.934,1.067c-0.32,0.287-0.628,0.465-0.929,0.537
			c-0.199,0.047-0.268-0.279-0.206-0.982c0.063-0.701,0.133-1.483,0.209-2.347c0.038-0.432,0.094-1.053,0.167-1.86
			c0.073-0.81,0.151-1.629,0.236-2.458c0.095-0.939,0.174-1.945,0.237-3.015l-3.598,0.853l-0.079,0.336
			c-0.044,0.117-0.072,0.254-0.086,0.415c-0.014,0.163-0.031,0.351-0.05,0.568c-0.746-0.774-1.699-1.075-2.854-0.909
			c-0.582,0.069-1.163,0.295-1.739,0.677c-0.578,0.384-1.119,0.883-1.625,1.493c-0.506,0.614-0.948,1.31-1.327,2.086
			c-0.38,0.777-0.682,1.579-0.908,2.407c-0.263,1.118-0.391,2.144-0.381,3.073c0.008,0.931,0.133,1.755,0.374,2.472
			c0.241,0.719,0.589,1.296,1.044,1.735c0.455,0.437,0.978,0.71,1.564,0.817c0.845,0.149,1.69-0.147,2.534-0.891
			c0.844-0.744,1.601-1.708,2.271-2.89c0.083,0.791,0.309,1.414,0.681,1.871c0.372,0.457,1.007,0.579,1.906,0.367
			c1.066-0.253,2.017-0.802,2.854-1.652c0.837-0.851,1.562-1.752,2.181-2.712c0.695-1.078,1.34-2.285,1.939-3.625
			c0.161-0.356,0.232-0.654,0.21-0.897C42.88,77.953,42.782,77.798,42.608,77.735z M33.534,79.41
			c-0.125,0.662-0.325,1.38-0.599,2.149c-0.276,0.77-0.583,1.476-0.924,2.12c-0.34,0.644-0.716,1.174-1.127,1.588
			c-0.413,0.416-0.822,0.583-1.226,0.501c-0.217-0.02-0.373-0.194-0.469-0.525c-0.094-0.327-0.143-0.755-0.145-1.285
			c-0.002-0.526,0.035-1.116,0.111-1.768c0.073-0.652,0.172-1.307,0.298-1.971c0.229-1.111,0.544-2.046,0.942-2.812
			c0.401-0.761,0.874-1.246,1.425-1.448c0.725-0.204,1.264-0.008,1.618,0.594C33.792,77.157,33.825,78.11,33.534,79.41z
			 M73.14,58.95c-1.85-1.568-3.977-2.613-6.388-3.134c-2.41-0.518-4.897-0.476-7.461,0.132c-2.398,0.568-4.471,1.588-6.215,3.059
			c-1.745,1.467-3,3.193-3.763,5.168c-0.221,0.547-0.365,1.018-0.428,1.422c-0.064,0.402-0.093,0.759-0.089,1.077
			c0.002,0.598,0.16,1.158,0.479,1.683c0.316,0.524,0.758,0.946,1.328,1.269c0.809,0.443,1.665,0.528,2.57,0.261
			c0.903-0.266,1.572-0.821,2.008-1.664c0.443-0.806,0.521-1.656,0.241-2.538c-0.279-0.885-0.823-1.549-1.63-1.99
			c-0.356-0.162-0.678-0.261-0.969-0.3c0.475-0.673,1.059-1.322,1.755-1.946c0.696-0.622,1.474-1.158,2.336-1.612
			c0.86-0.449,1.792-0.783,2.797-1.006c1.003-0.219,2.044-0.281,3.121-0.184c3.161,0.273,5.579,1.829,7.253,4.669
			c1.676,2.843,2.532,6.723,2.572,11.642c0.007,2.709-0.254,5.209-0.785,7.501c-0.531,2.292-1.217,4.257-2.059,5.902
			c-0.845,1.641-1.808,2.919-2.894,3.826c-1.086,0.909-2.173,1.298-3.257,1.169c-0.798-0.093-1.504-0.401-2.118-0.924
			c-0.618-0.523-1.112-1.198-1.482-2.026c0.56-1.788,0.923-3.677,1.083-5.668c0.163-1.992,0.232-3.937,0.205-5.832
			c-0.036-1.786-0.018-3.42,0.054-4.895c0.073-1.478,0.241-2.804,0.51-3.978c0.268-1.172,0.653-2.221,1.153-3.151
			c0.5-0.929,1.197-1.744,2.086-2.448c0.352-0.296,0.564-0.59,0.633-0.89c0.071-0.297,0.047-0.547-0.071-0.748
			c-0.12-0.202-0.308-0.331-0.57-0.394c-0.259-0.061-0.544-0.003-0.854,0.177c-2.866,1.56-4.966,3.729-6.295,6.507
			c-1.329,2.781-1.943,6.395-1.839,10.84c0.025,2.493-0.025,4.619-0.156,6.373c-0.129,1.757-0.348,3.207-0.656,4.354
			c-0.31,1.147-0.716,2.026-1.222,2.641c-0.506,0.612-1.108,1-1.807,1.165c-0.268,0.063-0.539,0.111-0.812,0.141
			c-0.274,0.031-0.562,0.007-0.858-0.062c0.201-0.187,0.403-0.448,0.608-0.779c0.433-0.841,0.515-1.715,0.25-2.619
			c-0.268-0.906-0.821-1.574-1.665-2.009c-0.807-0.441-1.652-0.521-2.536-0.243c-0.885,0.28-1.547,0.822-1.99,1.634
			c-0.383,0.759-0.488,1.576-0.316,2.452c0.094,0.401,0.312,0.911,0.653,1.536c0.341,0.621,0.863,1.193,1.567,1.712
			c0.704,0.521,1.609,0.895,2.721,1.127c1.108,0.229,2.463,0.154,4.062-0.225c1.032-0.245,1.932-0.679,2.699-1.3
			c0.767-0.622,1.431-1.388,1.991-2.294c0.771,0.59,1.62,1.094,2.546,1.51c0.923,0.414,1.939,0.648,3.041,0.702
			c1.825,0.131,3.593-0.278,5.303-1.229c1.708-0.953,3.239-2.361,4.592-4.231c1.349-1.871,2.454-4.155,3.308-6.858
			c0.856-2.703,1.342-5.738,1.458-9.112c0.12-3.514-0.355-6.56-1.424-9.141C76.447,62.593,74.988,60.517,73.14,58.95z
			 M112.219,65.898c-0.172-0.066-0.399-0.013-0.673,0.16c-0.277,0.169-0.573,0.488-0.883,0.948c-0.51,0.826-1.034,1.654-1.578,2.486
			c-0.54,0.832-1.106,1.566-1.694,2.198c0.04-0.574,0.136-1.469,0.287-2.683c0.152-1.215,0.29-2.454,0.413-3.715
			c0.152-1.443,0.325-3.015,0.52-4.716l-3.596,0.852l-0.013-0.051c-0.054,0.366-0.138,0.903-0.25,1.616
			c-0.114,0.712-0.258,1.514-0.434,2.401c-0.178,0.888-0.368,1.793-0.571,2.723c-0.201,0.927-0.43,1.781-0.686,2.565
			c-0.254,0.782-0.513,1.433-0.776,1.953c-0.265,0.521-0.546,0.818-0.845,0.888c-0.368,0.087-0.593-0.126-0.678-0.633
			c-0.085-0.508-0.107-1.154-0.064-1.94c0.044-0.785,0.136-1.615,0.281-2.496c0.143-0.877,0.278-1.648,0.401-2.313
			c0.08-0.405,0.185-0.853,0.315-1.34c0.13-0.489,0.254-0.941,0.366-1.355c0.131-0.488,0.261-0.977,0.392-1.466l-3.596,0.852
			c-0.182,0.43-0.354,0.895-0.517,1.39c-0.145,0.424-0.295,0.943-0.448,1.557c-0.152,0.619-0.299,1.296-0.442,2.034
			c-0.168,0.843-0.269,1.617-0.34,2.362c-0.013,0.019-0.026,0.03-0.039,0.05c-0.312,0.464-0.62,0.941-0.925,1.436
			c-0.305,0.494-0.611,0.955-0.914,1.378c-0.305,0.425-0.617,0.781-0.936,1.067c-0.319,0.287-0.628,0.465-0.929,0.536
			c-0.199,0.047-0.268-0.279-0.205-0.981c0.062-0.701,0.132-1.484,0.208-2.348c0.04-0.431,0.094-1.052,0.167-1.861
			c0.073-0.808,0.151-1.629,0.236-2.457c0.094-0.939,0.174-1.945,0.237-3.014l-3.598,0.853l-0.078,0.335
			c-0.044,0.117-0.073,0.254-0.087,0.415c-0.014,0.162-0.031,0.351-0.051,0.568c-0.745-0.774-1.696-1.075-2.853-0.909
			c-0.582,0.069-1.162,0.295-1.739,0.677c-0.579,0.385-1.119,0.883-1.625,1.494c-0.506,0.614-0.947,1.31-1.328,2.086
			c-0.379,0.776-0.682,1.578-0.907,2.406c-0.263,1.119-0.392,2.144-0.381,3.073c0.009,0.932,0.134,1.755,0.374,2.473
			c0.243,0.719,0.588,1.296,1.045,1.734c0.453,0.438,0.976,0.71,1.565,0.818c0.843,0.149,1.688-0.147,2.532-0.892
			c0.844-0.744,1.602-1.708,2.273-2.889c0.081,0.791,0.308,1.415,0.68,1.871c0.372,0.458,1.007,0.579,1.906,0.366
			c1.066-0.252,2.017-0.801,2.855-1.652c0.836-0.85,1.563-1.751,2.18-2.71c0.146-0.227,0.282-0.484,0.424-0.723
			c0.054,0.231,0.116,0.452,0.195,0.657c0.277,0.728,0.711,1.258,1.3,1.594c0.589,0.336,1.371,0.405,2.345,0.211
			c0.774-0.149,1.473-0.686,2.098-1.607l-0.294,1.652c-1.966,0.466-3.395,1.112-4.291,1.941c-0.892,0.829-1.393,1.649-1.498,2.467
			c-0.105,0.817,0.147,1.514,0.758,2.09c0.611,0.578,1.454,0.827,2.525,0.749c1.148-0.059,2.111-0.368,2.895-0.924
			c0.783-0.555,1.422-1.243,1.913-2.063c0.492-0.82,0.88-1.741,1.166-2.76c0.287-1.018,0.519-2.042,0.698-3.069
			c0.84-0.762,1.707-1.674,2.599-2.726c0.894-1.057,1.792-2.503,2.695-4.336c0.161-0.355,0.232-0.654,0.21-0.896
			C112.491,66.115,112.393,65.961,112.219,65.898z M89.555,70.794c-0.125,0.663-0.325,1.38-0.599,2.15
			c-0.276,0.769-0.584,1.474-0.925,2.118c-0.339,0.644-0.716,1.174-1.128,1.588c-0.41,0.416-0.82,0.584-1.226,0.502
			c-0.216-0.02-0.372-0.194-0.466-0.524c-0.096-0.329-0.143-0.756-0.147-1.286c-0.002-0.527,0.035-1.116,0.111-1.769
			c0.074-0.651,0.172-1.306,0.299-1.97c0.229-1.111,0.544-2.047,0.941-2.812c0.401-0.762,0.874-1.247,1.426-1.448
			c0.726-0.204,1.264-0.008,1.618,0.594C89.813,68.541,89.846,69.494,89.555,70.794z M101.315,80.575
			c-0.39,0.585-0.892,0.843-1.505,0.778c-0.298-0.069-0.479-0.239-0.542-0.506c-0.064-0.267,0.005-0.58,0.199-0.945
			c0.196-0.362,0.539-0.733,1.028-1.114c0.492-0.379,1.125-0.717,1.901-1.005C102.062,79.06,101.703,79.988,101.315,80.575z"/>
	</g>
</g>
</svg>
