<?xml version="1.0" encoding="utf-8"?>
<!-- Generator: Adobe Illustrator 17.0.0, SVG Export Plug-In . SVG Version: 6.00 Build 0)  -->
<!DOCTYPE svg PUBLIC "-//W3C//DTD SVG 1.1//EN" "http://www.w3.org/Graphics/SVG/1.1/DTD/svg11.dtd">
<svg version="1.1" id="Layer_1" xmlns="http://www.w3.org/2000/svg" xmlns:xlink="http://www.w3.org/1999/xlink" x="0px" y="0px"
	 width="200px" height="200px" viewBox="0 0 200 200" enable-background="new 0 0 200 200" xml:space="preserve">
<path d="M144.466,56.447c5.971-5.262,9.763-12.949,9.763-21.518c0-15.825-12.855-28.7-28.656-28.7
	c-10.781,0-20.183,6.001-25.074,14.837C95.61,12.23,86.207,6.229,75.426,6.229c-15.801,0-28.656,12.875-28.656,28.7
	c0,8.57,3.792,16.256,9.763,21.518H14.532v136.324h171.935V56.447H144.466z M179.303,63.621v57.4h-75.221v-57.4h4.576l17.389,30.48
	l6.219-3.559l-15.36-26.92H179.303z M100.5,49.328l4.061,7.119h-8.122L100.5,49.328z M125.574,13.404
	c11.851,0,21.492,9.655,21.492,21.525c0,11.866-9.641,21.518-21.492,21.518c-11.851,0-21.492-9.652-21.492-21.518
	C104.082,23.059,113.722,13.404,125.574,13.404z M53.934,34.928c0-11.87,9.641-21.525,21.492-21.525s21.492,9.655,21.492,21.525
	c0,11.866-9.64,21.518-21.492,21.518S53.934,46.795,53.934,34.928z M84.094,63.621l-15.36,26.92l6.219,3.559l17.389-30.48h4.575
	v57.4H21.697v-57.4H84.094z M21.697,128.196h75.221v57.4H21.697V128.196z M104.082,185.596v-57.4h75.221v57.4H104.082z"/>
</svg>
